# xmcd
#
# Track frame offsets: 
#        150
#        21797
#        42130
#        65355
#        84579
#        112070
#        130950
#        151635
#        180745
#        200917
#
# Disc length: 2978 seconds
#
# Revision: 0
# Processed by: cddbd v1.5.2PL0 Copyright (c) Steve Scherf et al.
# Submitted via: ExactAudioCopy v1.0b3
#
DISCID=830ba00a
DTITLE=Hoai Nam - Chan Que
DYEAR=1995
DGENRE=
TTITLE0=Con gi ma mong
TTITLE1=Lang tham
TTITLE2=O hai dau noi nho
TTITLE3=Xot xa
TTITLE4=Huong toc ma non
TTITLE5=Chan que
TTITLE6=Dung ben
TTITLE7=Sa mua giong
TTITLE8=Que Me
TTITLE9=Buom trang
EXTD=
EXTT0=
EXTT1=
EXTT2=
EXTT3=
EXTT4=
EXTT5=
EXTT6=
EXTT7=
EXTT8=
EXTT9=
PLAYORDER=
